<svg xmlns="http://www.w3.org/2000/svg" width="128" height="128"><path d="M122.829 4.975a1.756 1.756 0 0 0-1.412-.4L41 17.443a1.751 1.751 0 0 0-1.474 1.728v73.954A35.214 35.214 0 0 0 28.808 91.5c-13.6 0-24.251 7.016-24.251 15.971s10.652 15.969 24.251 15.969 24.252-7.014 24.252-15.969V59.058l56.847-9.094v30.3a35.219 35.219 0 0 0-10.715-1.621c-13.6 0-24.252 7.015-24.252 15.97s10.653 15.97 24.252 15.97 24.251-7.015 24.251-15.97V6.307a1.75 1.75 0 0 0-.614-1.332zM53.06 55.514V45.058l56.847-9.094V46.42zm66.883 39.094c0 6.76-9.5 12.47-20.751 12.47s-20.752-5.71-20.752-12.47 9.5-12.47 20.752-12.47a30.631 30.631 0 0 1 11.786 2.245 1.75 1.75 0 0 0 2.429-1.613V33.912a1.75 1.75 0 0 0-2.026-1.728l-60.348 9.654a1.749 1.749 0 0 0-1.473 1.728v63.908c0 6.759-9.5 12.469-20.752 12.469s-20.751-5.71-20.751-12.469S17.56 95 28.808 95a30.628 30.628 0 0 1 11.786 2.245 1.75 1.75 0 0 0 2.429-1.613V20.664l76.92-12.305z" fill="#241c49" stroke="#0a2119" stroke-miterlimit="10"/></svg>