<svg xmlns="http://www.w3.org/2000/svg" viewBox="0 0 32 32"><path d="M11.12 2H7.88A2.88 2.88 0 0 0 5 4.88v22.24A2.88 2.88 0 0 0 7.88 30h3.24A2.88 2.88 0 0 0 14 27.12V4.88A2.88 2.88 0 0 0 11.12 2zM12 27.12a.89.89 0 0 1-.88.88H7.88a.89.89 0 0 1-.88-.88V4.88A.89.89 0 0 1 7.88 4h3.24a.89.89 0 0 1 .88.88zM24.12 2h-3.24A2.88 2.88 0 0 0 18 4.88v22.24A2.88 2.88 0 0 0 20.88 30h3.24A2.88 2.88 0 0 0 27 27.12V4.88A2.88 2.88 0 0 0 24.12 2zM25 27.12a.89.89 0 0 1-.88.88h-3.24a.89.89 0 0 1-.88-.88V4.88a.89.89 0 0 1 .88-.88h3.24a.89.89 0 0 1 .88.88z"/></svg>