<svg version="1.1" id="ios7_x5F_arrows_1_" xmlns="http://www.w3.org/2000/svg" x="0" y="0" viewBox="0 0 128 128" style="enable-background:new 0 0 128 128" xml:space="preserve"><style>.st0{display:none}.st1{display:inline}</style><g id="_x32_0_1_"><path d="M64.1 0C28.8 0 .2 28.7.2 64s28.6 64 63.9 64S128 99.3 128 64c-.1-35.3-28.7-64-63.9-64zm0 122.7C31.7 122.7 5.5 96.4 5.5 64c0-32.4 26.2-58.7 58.6-58.7s58.6 26.3 58.6 58.7c-.1 32.4-26.3 58.7-58.6 58.7zM82.7 40l-5.3-2.7-26.6 24.3V37.3h-5.3v53.3h5.3V66.4l26.6 24.2 5.3-3.6-26.6-23 26.6-24z" id="icon_19_"/></g></svg>